<svg width="118" height="14" viewBox="0 0 118 14" fill="none" xmlns="http://www.w3.org/2000/svg">
<path d="M28.7668 10.0004C37.6004 10.8394 45.7853 7.00042 54.7297 7.00042C56.0484 7.00042 62.1793 7.00042 57.398 7.00042C47.9847 7.00042 38.438 6.61645 29.0633 7.33375C26.3011 7.54509 23.5628 7.92585 20.8043 8.16706C18.7837 8.34375 24.8702 8.2004 26.9032 8.2004C36.5179 8.2004 46.1793 7.96838 55.7885 8.23373C58.9316 8.32052 68.2514 9.40037 65.1064 9.40037C55.3791 9.40037 45.6519 9.40037 35.9246 9.40037C34.2869 9.40037 32.6492 9.40037 31.0116 9.40037C26.4232 9.40037 40.1882 9.41475 44.7765 9.40037C51.9241 9.37796 73.3129 8.2004 66.1652 8.2004C51.7889 8.2004 37.21 10.4858 22.922 11.667C18.9254 11.9974 14.9162 12.3586 10.8935 12.4003C10.4219 12.4052 5.21676 12.5365 8.30992 12.3336C37.2798 10.4337 66.0432 6.97103 94.8387 3.93383C101.194 3.26352 107.907 2.20053 114.364 2.20053C127.494 2.20053 87.9731 1.03914 74.9748 2.50053C71.7893 2.85867 68.6132 2.80052 65.4028 2.80052C62.5365 2.80052 72.1328 3.81049 73.0689 3.86716C75.3612 4.00594 77.6399 3.92379 79.9302 4.00049C81.8753 4.06563 76.3446 5.2819 74.4242 5.53379C64.6655 6.81381 54.7973 7.53902 45.0307 8.80038C36.458 9.90753 28.0521 11.8081 19.449 12.7336C9.47001 13.8071 22.1908 11.2932 25.2938 11.2337C35.7049 11.0338 46.162 11.1173 56.5509 11.667C57.679 11.7267 65.7695 12.0311 63.8781 11.7003C51.9462 9.61354 40.1855 8.38417 28.0044 7.13375C24.4935 6.77335 20.9581 6.41721 17.5007 5.80045C12.529 4.91357 20.991 5.20046 21.6937 5.20046C32.861 5.20046 44.0283 5.20046 55.1956 5.20046C58.7241 5.20046 60.9382 5.904 64.1746 6.3671C67.8247 6.88941 57.9927 6.40044 57.398 6.40044C39.4682 6.40044 -14.3211 6.40044 3.60864 6.40044C9.84877 6.40044 16.0889 6.40044 22.329 6.40044C27.9056 6.40044 33.4822 6.40044 39.0588 6.40044C43.9578 6.40044 49.6716 5.71538 54.4332 6.6671C57.1824 7.21659 59.7594 8.2004 62.6498 8.2004C64.6151 8.2004 67.0678 9.22249 69.2147 9.4337C70.6029 9.57026 71.8281 10.5304 72.9842 10.6003C81.3475 11.1066 56.2893 8.97545 48.1648 7.33375C42.0195 6.09197 36.5054 3.83508 30.6304 2.0672C26.8855 0.940325 23.7071 1.00056 19.7031 1.00056C12.408 1.00056 21.2816 1.00056 23.7691 1.00056C28.8205 1.00056 33.7159 1.30467 38.7199 1.56722C45.3781 1.91655 51.5319 3.40051 58.2451 3.40051C59.0329 3.40051 65.8942 3.31698 63.3699 3.43384C46.6415 4.20827 29.8512 5.6051 13.0959 5.80045C11.3172 5.82119 6.50147 6.79038 7.75932 5.80045C9.13366 4.71884 15.4825 4.52236 17.2466 4.33382C29.0187 3.07565 41.5255 2.34895 53.4167 2.93385C62.1907 3.36542 71.3175 6.27119 79.0831 9.26704C83.3508 10.9135 89.215 12.0575 93.8646 12.3336C97.0323 12.5218 106.571 12.4003 103.394 12.4003C96.0942 12.4003 88.1179 13.1127 80.9043 12.067C76.254 11.3928 71.9157 9.75929 67.1394 9.26704C65.246 9.07191 44.2741 6.88101 44.7765 5.20046C45.4933 2.80297 61.0596 2.30327 63.7934 2.23387C69.2536 2.09525 74.6802 2.14226 80.0996 2.66719C85.2495 3.16602 90.6616 2.80052 95.8552 2.80052" stroke="#F3C41A" stroke-width="2" stroke-linecap="round" stroke-linejoin="round"/>
</svg>
