<svg width="15" height="15" viewBox="0 0 15 15" fill="none" xmlns="http://www.w3.org/2000/svg">
<path d="M13.4582 3.73827C13.4677 3.90232 13.4677 4.06641 13.4677 4.23047C13.4677 9.23435 10.3744 15 4.72083 15C2.97906 15 1.36105 14.3789 0 13.3008C0.247472 13.3359 0.485393 13.3477 0.742386 13.3477C2.17955 13.3477 3.50254 12.75 4.55902 11.7305C3.20749 11.6953 2.07487 10.6055 1.68464 9.10547C1.87501 9.1406 2.06535 9.16405 2.26524 9.16405C2.54125 9.16405 2.81729 9.11715 3.07425 9.03516C1.66562 8.68357 0.609114 7.16015 0.609114 5.32031V5.27345C1.01836 5.5547 1.49429 5.73048 1.9987 5.75389C1.17065 5.07419 0.628157 3.91405 0.628157 2.60154C0.628157 1.89842 0.780413 1.25389 1.04693 0.691389C2.56026 2.98826 4.83503 4.48824 7.38577 4.65233C7.33819 4.37108 7.30963 4.07814 7.30963 3.78516C7.30963 1.6992 8.6802 0 10.3839 0C11.269 0 12.0685 0.45703 12.6301 1.19531C13.3249 1.03126 13.9911 0.714835 14.5812 0.281252C14.3528 1.16018 13.8674 1.89846 13.2297 2.36718C13.8484 2.28519 14.448 2.0742 15 1.78126C14.5813 2.53123 14.0578 3.19917 13.4582 3.73827Z" fill="white"/>
</svg>
